<svg xmlns="http://www.w3.org/2000/svg" fill="none" viewBox="0 0 171 40" height="40" width="171">
<path fill="black" d="M13.106 32.044C9.90831 32.044 7.07093 30.0659 5.49461 27.0769V34.2857C5.49461 36.0879 5.53965 38.0659 5.76484 40H0V7.51648H5.49461V12C7.07093 8.87912 9.90831 6.9011 13.1961 6.9011C19.5014 6.9011 23.7349 11.9121 23.7349 19.4725C23.7349 26.9451 19.4113 32.044 13.106 32.044ZM5.49461 20.6154C5.49461 24.5275 8.33199 27.6923 11.7098 27.6923C15.4029 27.6923 17.925 24.3956 17.925 19.4725C17.925 14.5495 15.4029 11.2527 11.7098 11.2527C8.19688 11.2527 5.49461 14.5495 5.49461 18.5055V20.6154Z"></path>
<path fill="black" d="M27.7088 31.4286V0H33.2034V25.7143C33.2034 27.5165 33.2484 29.4945 33.4736 31.4286H27.7088Z"></path>
<path fill="black" d="M65.4015 31.4286V7.51648H70.8961V13.7143C72.4725 9.71429 75.9404 6.9011 79.7686 6.9011C85.1731 6.9011 87.5151 10.6374 87.5151 15.1648V25.7143C87.5151 27.5165 87.6052 29.4945 87.8304 31.4286H82.0655V16C82.0655 12.7912 80.7144 11.1209 77.9671 11.1209C74.4091 11.1209 70.8961 15.0769 70.8961 20.5714V31.4286H65.4015Z"></path>
<path fill="black" d="M100.472 32.044C96.4181 32.044 94.2113 30.0659 94.2113 25.978V11.5165H90.248V7.51648H94.2113V3.47253C96.4181 2.9011 98.1296 2.10989 99.8861 0.923078C99.796 3.03297 99.7059 5.23077 99.7059 7.12088V7.51648H104.615V11.5165H99.7059V25.3187C99.7059 26.9451 100.517 27.5604 101.778 27.5604C103.039 27.5604 103.939 27.2967 104.93 26.7253L104.345 31.4286C103.174 31.8681 101.597 32.044 100.472 32.044Z"></path>
<path fill="black" d="M165.28 16C165.28 12.9231 163.974 11.3846 161.722 11.3846C158.254 11.3846 155.867 15.2527 155.867 20.6154V31.4286H150.373V16C150.373 12.9231 149.112 11.3846 146.77 11.3846C143.347 11.3846 140.96 15.2967 140.96 20.6154V31.4286H135.465V7.51648H140.96V13.0549C142.311 9.45055 145.148 6.9011 148.706 6.9011C153.075 6.9011 155.147 9.53846 155.642 13.3187C157.083 9.58242 159.966 6.9011 163.569 6.9011C168.883 6.9011 170.73 10.7253 170.73 15.2088V25.7143C170.73 27.5165 170.82 29.4945 171 31.4286H165.28V16Z"></path>
<path fill="black" d="M128.353 8.86607C129.329 9.90081 129.924 11.365 130.202 13.0225C130.367 14.0061 130.405 15.6764 130.234 17.5485C130.061 19.4519 129.657 21.7286 128.845 23.9097C128.528 24.7603 128.141 25.62 127.666 26.4481C128.53 27.7222 129.453 27.5935 130.508 27.3362C130.508 27.3362 130.904 28.6229 131.563 29.5237C132.222 30.4244 133.013 30.9391 133.013 30.9391C128.399 33.2553 126.496 31.6572 124.724 29.9532C122.666 31.5911 119.999 32.4465 116.739 32.1061C113.823 31.8015 111.748 30.3284 110.466 28.1873C109.26 26.1734 108.812 23.6777 108.705 21.2387C108.497 16.4757 109.567 10.9185 110.311 7.06005C110.329 6.96331 110.45 6.4565 110.468 6.36194C110.468 6.36194 111.391 7.13399 112.577 7.52002C113.896 7.94894 114.819 8.03473 114.819 8.03473C114.05 12.0307 113.13 16.8067 113.316 21.0463C113.409 23.1805 113.795 24.8222 114.45 25.9148C115.028 26.8801 115.839 27.4827 117.23 27.6279C119.327 27.8469 120.764 27.3046 121.836 26.4399C121.93 26.3646 122.021 26.286 122.111 26.2042C120.804 23.4416 120.027 19.7968 120.027 15.3692C120.027 13.4525 120.355 11.7906 120.987 10.4759C121.602 9.19636 122.636 8.00603 124.151 7.58906C125.799 7.13559 127.327 7.77809 128.353 8.86607ZM125.091 20.4616C125.369 19.3292 125.543 18.1911 125.638 17.149C125.79 15.4822 125.728 14.2236 125.648 13.7505C125.532 13.0602 125.362 12.5946 125.21 12.2974C125.195 12.3259 125.18 12.3562 125.164 12.3884C124.894 12.9501 124.641 13.9185 124.641 15.3692C124.641 17.3057 124.809 19 125.091 20.4616Z" clip-rule="evenodd" fill-rule="evenodd"></path>
<path fill="black" d="M57.5936 9.13291C59.0812 10.2109 60.1114 11.8129 60.3806 13.8506C60.7425 16.5914 59.8519 18.8337 58.1006 20.4359C56.4622 21.9348 54.246 22.719 52.1287 23.1113C49.9969 23.5063 47.6662 23.5561 45.536 23.3637C46.1146 24.7359 47.0945 25.9377 48.5658 26.8026C50.0745 27.6895 52.2809 27.7842 54.6844 27.241C57.0704 26.7018 59.0971 25.6566 59.9408 24.9601L62.9368 28.4411C61.4037 29.7068 58.6546 31.0163 55.7295 31.6773C52.8219 32.3344 49.1822 32.4749 46.1735 30.7063C42.6829 28.6543 40.9695 25.4605 40.4241 22.2772C40.3749 22.2579 40.3264 22.2383 40.2786 22.2186C38.538 21.5006 36.4524 20.3724 34.6445 17.336L38.6601 15.0425C39.2686 16.0644 39.8746 16.7085 40.4772 17.1573C40.8985 14.8874 41.8276 12.7966 43.1273 11.3129C45.4897 8.61593 49.3469 7.33943 52.6933 7.51992C54.4003 7.612 56.155 8.09039 57.5936 9.13291ZM44.939 18.7126C46.8293 18.9771 49.1625 19.0273 51.2645 18.6378C52.9505 18.3254 54.1927 17.781 54.9275 17.1088C55.5493 16.5399 55.9466 15.7687 55.7704 14.4346C55.6661 13.6445 55.3156 13.1457 54.8287 12.7929C54.2929 12.4046 53.4793 12.1221 52.4377 12.0659C50.2867 11.9499 47.9254 12.8275 46.6553 14.2774C45.8552 15.1908 45.1529 16.8249 44.939 18.7126Z" clip-rule="evenodd" fill-rule="evenodd"></path>
</svg>
