<?xml version="1.0" encoding="UTF-8" standalone="no"?>
<!DOCTYPE svg PUBLIC "-//W3C//DTD SVG 1.1//EN" "http://www.w3.org/Graphics/SVG/1.1/DTD/svg11.dtd">
<svg width="100%" height="100%" viewBox="0 0 2301 903" version="1.1" xmlns="http://www.w3.org/2000/svg" xmlns:xlink="http://www.w3.org/1999/xlink" xml:space="preserve" xmlns:serif="http://www.serif.com/" style="fill-rule:evenodd;clip-rule:evenodd;stroke-linejoin:round;stroke-miterlimit:2;">
    <g transform="matrix(1,0,0,1,-6866.789234,-5274.579521)">
        <g transform="matrix(1,0,0,1,5531.314419,3966.715765)">
            <g transform="matrix(3.119261,0,0,3.380036,1339.916053,847.891009)">
                <path d="M448.547,261.151C452.325,253.22 457.257,246.902 463.295,242.166C470.387,236.602 478.288,233.846 486.976,233.846C497.581,233.846 506.173,237.851 512.734,245.896C518.935,253.499 522.23,265.803 522.23,282.891C522.23,286.981 520.935,289.753 518.921,291.39C517.394,292.629 515.391,293.336 512.846,293.336L466.909,293.336C466.439,293.336 466.037,293.31 465.802,293.559C465.428,293.957 465.413,294.591 465.413,295.386C465.413,310.452 467.676,321.774 472.451,329.307C476.728,336.055 482.046,339.606 488.669,339.606C493.769,339.606 497.942,337.961 501.163,334.616C504.767,330.875 507.584,324.526 509.837,315.656C509.846,315.62 509.856,315.584 509.866,315.549C510.826,312.302 513.033,310.823 516.231,310.823L517.4,310.922L518.603,311.267L519.732,311.9L520.644,312.77C521.588,313.932 522.182,315.92 521.71,318.825C521.705,318.854 521.7,318.884 521.694,318.913C519.491,330.224 516.128,338.755 511.775,344.573C512.587,344.198 513.574,343.94 514.758,343.855L520.779,343.411C522.065,343.296 523.135,343.099 523.979,342.773C524.404,342.609 524.759,342.446 524.96,342.175C525.734,341.13 525.948,339.42 525.948,337.11L525.948,249.869C525.948,249.073 525.906,248.43 525.475,248.032C525.044,247.634 524.347,247.595 523.485,247.595L517.924,247.595C516.901,247.595 516.037,247.451 515.321,247.215L514.445,246.851L513.61,246.323L512.72,245.443L512.103,244.403L511.776,243.326C511.716,243.001 511.683,242.654 511.683,242.282C511.683,241.915 511.715,241.568 511.775,241.242L512.089,240.18L512.668,239.16L513.491,238.281C514.419,237.497 515.757,236.909 517.606,236.76C522.939,236.23 525.948,234.457 525.948,230.68L525.948,229.341C525.948,221.247 527.263,213.699 529.877,206.695C532.567,199.489 536.497,193.659 541.616,189.175C546.997,184.461 553.6,182.081 561.444,182.081C568.759,182.081 574.87,184.066 579.808,187.949C584.983,192.016 587.51,196.907 587.51,202.566C587.51,206.385 586.304,209.195 584.235,211.105C582.109,213.066 579.289,214.127 575.708,214.127C571.134,214.127 567.967,212.575 566.023,209.831C564.487,207.664 563.261,205.207 562.358,202.456C561.631,200.244 560.729,198.263 559.639,196.52C558.993,195.488 557.76,195.161 556.124,195.161C554.097,195.161 552.648,196.397 551.482,198.502C549.768,201.597 549.068,207.427 549.068,215.954L549.068,235.184L569.422,235.184C571.669,235.184 573.297,235.827 574.421,236.794C575.621,237.828 576.388,239.322 576.388,241.39C576.388,243.458 575.621,244.952 574.421,245.986C573.297,246.953 571.669,247.595 569.422,247.595L549.068,247.595L549.068,337.11C549.068,339.273 549.166,340.813 549.891,341.637C550.096,341.869 550.457,341.99 550.889,342.135C551.778,342.433 552.906,342.624 554.264,342.744L567.076,343.859C567.171,343.868 567.266,343.88 567.36,343.895C569.052,344.179 570.273,344.805 571.119,345.585L571.852,346.421L572.378,347.382L572.673,348.39L572.762,349.382C572.762,349.798 572.723,350.187 572.653,350.551L572.278,351.739L571.584,352.863L570.602,353.796C569.523,354.593 567.952,355.141 565.796,355.141L515.506,355.141C513.401,355.141 511.863,354.643 510.811,353.931L509.805,353.052L509.066,351.954L508.658,350.77L508.54,349.605C508.54,349.221 508.573,348.86 508.634,348.52L508.788,347.992C508.678,348.1 508.566,348.206 508.455,348.31C502.16,354.202 494.518,357.149 485.525,357.149C476.99,357.149 469.339,354.536 462.582,349.285C456.069,344.224 450.844,337.093 446.988,327.841C444.932,322.908 443.431,317.549 442.493,311.763C441.982,313.112 441.44,314.436 440.868,315.734C435.378,328.208 427.616,337.852 417.648,344.712C407.575,351.645 395.633,355.141 381.803,355.141L335.382,355.141C333.277,355.141 331.739,354.643 330.687,353.931L329.68,353.052L328.942,351.954L328.534,350.77L328.416,349.605C328.416,346.973 330.027,344.802 334.147,343.925C334.207,343.912 334.266,343.901 334.326,343.891L339.881,343C341.738,342.697 343.179,342.148 344.107,341.165C344.997,340.223 345.34,338.927 345.34,337.333L345.34,206.136C345.34,204.854 345.249,203.784 345.034,202.929C344.932,202.524 344.864,202.188 344.661,201.986C343.917,201.247 342.257,200.888 339.86,200.466L334.326,199.578C334.266,199.569 334.207,199.558 334.147,199.545C330.027,198.668 328.416,196.497 328.416,193.865L328.534,192.7L328.942,191.516L329.68,190.417L330.687,189.539C331.739,188.826 333.277,188.328 335.382,188.328L384.221,188.328C397.599,188.328 409.168,191.952 418.944,199.154C428.565,206.241 436.028,216.148 441.261,228.921C445.186,238.502 447.621,249.245 448.547,261.151ZM382.77,343.176C395.853,343.176 405.766,337.344 412.601,325.814C419.892,313.515 423.434,295.7 423.434,272.404C423.434,249.205 420.023,231.175 413.031,218.342C406.514,206.381 396.962,200.293 384.221,200.293C379.148,200.293 375.289,201.258 372.753,203.506C370.261,205.715 369.185,209.082 369.185,213.499L369.185,329.97C369.185,334.859 370.011,338.381 372.196,340.397C374.356,342.391 377.926,343.176 382.77,343.176ZM465.861,281.575C465.971,281.586 466.085,281.594 466.183,281.594L490.603,281.594C493.375,281.594 495.511,281.085 496.898,279.753C498.327,278.378 498.869,276.268 498.869,273.52C498.869,264.375 497.714,257.19 495.275,251.984C493.339,247.853 490.606,245.587 486.734,245.587C481.528,245.587 477.313,248.566 473.776,254.11C469.696,260.502 467.112,269.611 465.881,281.402C465.878,281.431 465.874,281.459 465.87,281.488C465.867,281.515 465.864,281.544 465.861,281.575ZM645.858,267.076C646.594,262.208 648.186,257.695 650.623,253.535C654.123,247.56 658.853,242.801 664.803,239.249C670.825,235.653 677.553,233.846 684.992,233.846C689.176,233.846 693.19,234.479 697.039,235.744C698.685,229.517 701.744,224.656 706.121,221.112C710.793,217.328 715.472,215.549 720.05,215.549C724.697,215.549 728.462,216.87 731.392,219.388C734.435,222.003 735.961,225.245 735.961,229.118C735.961,232.575 734.769,235.288 732.566,237.322C730.321,239.393 727.527,240.456 724.16,240.456C721.064,240.456 718.857,239.724 717.428,238.626C716.38,237.819 715.419,237.012 714.545,236.206C714.242,235.926 713.705,235.993 713.038,235.993C712.011,235.993 711.152,236.177 710.51,236.69C709.768,237.284 709.336,238.217 709.039,239.405C709.022,239.47 709.004,239.534 708.983,239.598C708.788,240.198 708.665,240.707 708.892,241.127C709.31,241.899 709.951,242.659 710.775,243.422C714.963,247.131 718.244,251.639 720.602,256.957C722.934,262.218 724.114,268.035 724.114,274.412C724.114,282.077 722.406,288.94 719.031,295.008C715.612,301.158 710.954,306.004 705.079,309.564C699.136,313.166 692.443,314.979 684.992,314.979C682.74,314.979 680.792,315.374 679.166,316.24C677.332,317.216 675.511,318.626 673.678,320.445L669.643,324.607C668.494,325.926 667.917,327.121 668.409,328.319C668.855,329.403 670.154,329.566 671.936,329.566L692.729,329.566C705.256,329.566 715.14,332.515 722.447,338.215C729.958,344.074 733.785,352.091 733.785,362.323C733.785,370.3 731.304,377.377 726.365,383.563C721.533,389.614 715.116,394.405 707.092,397.908C699.172,401.366 690.277,403.113 680.398,403.113C667.333,403.113 657.046,400.597 649.482,395.759C641.331,390.544 637.407,384.178 637.407,376.826C637.407,373.777 637.881,371.026 638.798,368.57C639.711,366.128 641.622,363.278 644.632,360.079C647.357,357.184 651.519,353.445 657.132,348.874C658.131,348.029 658.882,347.383 658.923,346.655C658.861,346.606 658.745,346.518 658.659,346.47C658.488,346.372 658.293,346.285 658.079,346.202C651.091,343.515 647.125,339.857 645.766,335.647C644.274,331.023 645.81,326.647 650.918,322.711L667.446,309.576C660.863,306.326 655.584,301.518 651.628,295.13C651.358,294.693 651.096,294.254 650.843,293.813C650.851,294.335 650.856,294.859 650.856,295.386C650.856,306.808 648.875,317.147 644.944,326.408C640.931,335.864 635.392,343.291 628.39,348.728C621.145,354.354 613.009,357.149 603.996,357.149C594.974,357.149 586.873,354.348 579.708,348.716C572.802,343.287 567.271,335.871 563.179,326.429C559.162,317.162 557.137,306.816 557.137,295.386C557.137,283.947 559.166,273.67 563.186,264.549C567.275,255.271 572.84,247.897 579.826,242.393C587.083,236.676 595.147,233.846 603.996,233.846C613.025,233.846 621.132,236.687 628.303,242.405C635.2,247.906 640.72,255.276 644.807,264.549C645.174,265.382 645.524,266.224 645.858,267.076ZM603.996,345.408C611.09,345.408 616.248,341.47 619.795,333.98C623.855,325.406 625.802,312.534 625.802,295.386C625.802,278.314 623.856,265.5 619.797,256.964C616.251,249.506 611.089,245.587 603.996,245.587C596.904,245.587 591.742,249.506 588.196,256.964C584.137,265.5 582.191,278.314 582.191,295.386C582.191,312.534 584.138,325.406 588.198,333.98C591.744,341.47 596.903,345.408 603.996,345.408ZM683.299,392.04C688.53,392.04 693.327,390.978 697.685,388.833C701.983,386.718 705.388,383.779 707.895,380.011C710.399,376.248 711.633,371.985 711.633,367.232C711.633,361.533 709.935,357.09 706.298,353.988C702.574,350.81 697.298,349.34 690.553,349.34L684.992,349.34C680.535,349.34 677.183,349.675 674.955,350.471C672.882,351.211 670.93,352.534 669.058,354.385L669.051,354.393C664.443,358.919 661.477,362.509 660.288,365.253C659.16,367.856 658.593,370.523 658.593,373.256C658.593,378.841 660.646,383.364 664.841,386.79C669.221,390.369 675.401,392.04 683.299,392.04ZM684.75,303.237C689.365,303.237 692.899,300.77 695.591,296.156C698.765,290.717 700.269,283.31 700.269,273.966C700.269,264.914 698.722,257.624 695.477,252.123C692.719,247.446 689.241,244.918 684.75,244.918C680.259,244.918 676.781,247.446 674.023,252.123C670.778,257.624 669.231,264.914 669.231,273.966C669.231,283.31 670.735,290.717 673.909,296.156C676.601,300.77 680.135,303.237 684.75,303.237Z" style="fill:rgb(251,228,226);"/>
            </g>
        </g>
        <g transform="matrix(1,0,0,1,5531.314419,3966.715765)">
            <g transform="matrix(13.830142,-3.965729,3.965729,13.830142,-4829.606683,-415.516045)">
                <path d="M393.73,294.672C393.683,297.356 388.073,296.938 384.859,296.938C374.656,296.938 366.373,288.655 366.373,278.453C366.373,271.555 374.941,259.604 375.764,262.358C377.622,268.572 381.841,275.166 383.404,278.245C383.874,279.172 384.67,280.055 385.143,280.832C386.829,283.598 393.777,291.987 393.73,294.672ZM416.557,262.588C418.894,258.288 425.554,271.718 425.554,278.453C425.554,288.655 417.27,296.938 407.068,296.938C396.865,296.938 389.153,282.581 387.34,279.5C385.833,276.94 393.546,278.129 396.189,278.453C406.917,279.765 413.458,268.29 416.557,262.588ZM396.189,238.964C406.391,238.964 414.675,247.248 414.675,257.45C414.675,262.471 410.591,267.155 407.338,270.488C403.98,273.928 401.371,275.936 396.189,275.936C389.89,275.936 384.794,272.779 381.455,267.963C379.386,264.978 377.703,261.355 377.703,257.45C377.703,247.248 385.986,238.964 396.189,238.964Z" style="fill:rgb(240,160,152);"/>
            </g>
        </g>
    </g>
</svg>
