<svg width="590" height="137" viewBox="0 0 590 137" fill="none" xmlns="http://www.w3.org/2000/svg">
<path d="M155.258 38.8977V34.1887H185.646V136.5H155.258V103.928C151.305 108.41 145.07 110.915 136.867 110.915C116.964 110.915 101.469 94.2041 101.469 71.4107C101.469 48.6219 116.964 31.9061 136.867 31.9061C145.07 31.9061 151.305 34.416 155.258 38.8977ZM133.378 71.4107C133.378 77.4883 138.389 82.3504 144.318 82.3504C150.396 82.3504 155.258 77.4883 155.258 71.4107C155.258 65.3331 150.396 60.471 144.318 60.471C138.389 60.471 133.378 65.3331 133.378 71.4107Z" fill="#E7F1E7"/>
<path d="M190.894 76.2735V34.1895H221.281V76.5797C221.281 79.767 223.564 82.0496 226.756 82.0496C229.948 82.0496 232.221 79.767 232.221 76.5797V34.1895H262.609V76.2735C262.609 99.8278 247.262 110.916 226.756 110.916C206.241 110.916 190.894 99.8278 190.894 76.2735Z" fill="#E7F1E7"/>
<path d="M266.934 15.9549C266.934 7.14003 274.375 0 283.042 0C291.699 0 299.14 7.14003 299.14 15.9549C299.14 24.7651 291.699 31.9051 283.042 31.9051C274.375 31.9051 266.934 24.7651 266.934 15.9549ZM267.843 34.1877H298.231V108.636H267.843V34.1877Z" fill="#E7F1E7"/>
<path d="M304.209 2.28003H334.597V108.639H304.209V2.28003Z" fill="#E7F1E7"/>
<path d="M339.981 2.28003H370.369V108.639H339.981V2.28003Z" fill="#E7F1E7"/>
<path d="M406.428 103.93V108.639H376.04V2.28003H406.428V38.8989C410.381 34.4172 416.607 31.9073 424.818 31.9073C444.721 31.9073 460.217 48.6231 460.217 71.4119C460.217 94.2053 444.721 110.916 424.818 110.916C416.607 110.916 410.381 108.411 406.428 103.93ZM428.307 71.4119C428.307 65.3343 423.297 60.4722 417.368 60.4722C411.29 60.4722 406.428 65.3343 406.428 71.4119C406.428 77.4895 411.29 82.3516 417.368 82.3516C423.297 82.3516 428.307 77.4895 428.307 71.4119Z" fill="#E7F1E7"/>
<path d="M463.189 71.4107C463.189 47.8611 482.332 31.9061 503.45 31.9061C524.568 31.9061 543.72 47.8611 543.72 71.4107C543.72 94.965 524.568 110.915 503.45 110.915C482.332 110.915 463.189 94.965 463.189 71.4107ZM513.332 71.4107C513.332 65.9408 508.924 61.5334 503.45 61.5334C497.985 61.5334 493.577 65.9408 493.577 71.4107C493.577 76.8806 497.985 81.288 503.45 81.288C508.924 81.288 513.332 76.8806 513.332 71.4107Z" fill="#E7F1E7"/>
<path d="M550.709 59.254H545.393V34.1873H550.709V17.0168H581.097V34.1873H589.457V59.254H581.097V108.636H550.709V59.254Z" fill="#E7F1E7"/>
<path d="M82.5311 32.74C81.8559 32.0649 80.9403 31.6856 79.9855 31.6856H49.7913L62.3757 25.3933C62.9855 25.0884 63.3707 24.4651 63.3707 23.7834V17.6428C63.3707 16.6487 62.5648 15.8428 61.5707 15.8428H49.7913L59.9502 10.7633C60.8393 10.3187 61.1997 9.23752 60.7552 8.34836L57.0785 0.99502C56.7736 0.385206 56.1503 0 55.4685 0H35.0611C34.3793 0 33.756 0.385206 33.4511 0.99502L29.7744 8.34836C29.3299 9.23752 29.6903 10.3187 30.5794 10.7633L40.7383 15.8428H28.9589C27.9648 15.8428 27.1589 16.6487 27.1589 17.6428V23.7834C27.1589 24.4651 27.5441 25.0884 28.1539 25.3933L40.7383 31.6856H10.5441C9.58935 31.6856 8.67367 32.0649 7.99854 32.74L1.05441 39.6842C0.379282 40.3593 0 41.275 0 42.2298V98.0921C0 99.0469 0.379281 99.9626 1.05441 100.638L7.99854 107.582C8.67367 108.257 9.58935 108.636 10.5441 108.636H79.9855C80.9403 108.636 81.8559 108.257 82.5311 107.582L89.4752 100.638C90.1503 99.9626 90.5296 99.0469 90.5296 98.0921V42.2298C90.5296 41.275 90.1503 40.3593 89.4752 39.6842L82.5311 32.74ZM31.9479 82.1255C26.0182 82.1255 21.0119 77.264 21.0119 71.1895C21.0119 65.1149 26.0182 60.2534 31.9479 60.2534C38.0224 60.2534 42.8839 65.1149 42.8839 71.1895C42.8839 77.264 38.0224 82.1255 31.9479 82.1255ZM58.5817 82.1255C52.652 82.1255 47.6457 77.264 47.6457 71.1895C47.6457 65.1149 52.652 60.2534 58.5817 60.2534C64.6562 60.2534 69.5177 65.1149 69.5177 71.1895C69.5177 77.264 64.6562 82.1255 58.5817 82.1255Z" fill="#E7F1E7"/>
</svg>

